<svg width="73" height="73" viewBox="0 0 73 73" fill="none" xmlns="http://www.w3.org/2000/svg">
<path d="M70.8659 37.7249L72.6589 40.6781C73.2548 41.6642 73.0544 42.9404 72.179 43.6945L69.5634 45.9516C68.8989 46.5264 68.6036 47.4229 68.804 48.2825L69.595 51.647C69.8587 52.7702 69.2733 53.9198 68.2081 54.3681L65.0229 55.7076C64.2108 56.0503 63.657 56.815 63.5832 57.6904L63.2932 61.134C63.1982 62.2836 62.2859 63.1959 61.1363 63.2909L57.6927 63.5809C56.8173 63.6547 56.0527 64.2085 55.7099 65.0206L54.3704 68.2058C53.9222 69.271 52.7725 69.8564 51.6493 69.5927L48.2848 68.8017C47.4252 68.6013 46.5287 68.8913 45.9539 69.5611L43.6968 72.1767C42.9427 73.0521 41.6665 73.2525 40.6804 72.6566L37.7272 70.8636C36.9731 70.4048 36.0292 70.4048 35.2751 70.8636L32.3219 72.6566C31.3305 73.2578 30.0596 73.0521 29.3055 72.1767L27.0484 69.5611C26.4736 68.8966 25.5771 68.6013 24.7175 68.8017L21.353 69.5927C20.2298 69.8564 19.0802 69.271 18.6319 68.2058L17.2924 65.0206C16.9497 64.2085 16.185 63.6547 15.3096 63.5809L11.866 63.2961C10.7164 63.2012 9.80406 62.2889 9.70914 61.1393L9.4191 57.6957C9.34527 56.8203 8.79155 56.0556 7.97943 55.7128L4.79424 54.3734C3.72899 53.9251 3.14363 52.7755 3.40731 51.6522L4.19833 48.2878C4.39872 47.4282 4.10868 46.5317 3.43895 45.9569L0.823291 43.6998C-0.0521103 42.9404 -0.257777 41.6695 0.343402 40.6781L2.13639 37.7249C2.59519 36.9708 2.59519 36.0269 2.13639 35.2728L0.343402 32.3196C-0.252503 31.3335 -0.0521103 30.0573 0.823291 29.3032L3.43895 27.0461C4.10341 26.4713 4.39872 25.5748 4.19833 24.7152L3.40731 21.3507C3.14363 20.2275 3.72899 19.0778 4.79424 18.6296L7.97943 17.2901C8.79155 16.9473 9.34527 16.1827 9.4191 15.3073L9.70914 11.8637C9.80406 10.7141 10.7164 9.80175 11.866 9.70683L15.3096 9.41679C16.185 9.34296 16.9497 8.78924 17.2924 7.97712L18.6319 4.79192C19.0802 3.72668 20.2298 3.14132 21.353 3.40499L24.7175 4.19601C25.5771 4.39641 26.4736 4.10637 27.0484 3.43663L29.3055 0.820976C30.0596 -0.0544205 31.3358 -0.254814 32.3219 0.341087L35.2751 2.13408C36.0292 2.59287 36.9731 2.59287 37.7272 2.13408L40.6804 0.341087C41.6665 -0.254814 42.9427 -0.0544205 43.6968 0.820976L45.9539 3.43663C46.5287 4.10109 47.4252 4.39641 48.2848 4.19601L51.6493 3.40499C52.7725 3.14132 53.9222 3.72668 54.3704 4.79192L55.7099 7.97712C56.0527 8.78924 56.8173 9.34296 57.6927 9.41679L61.1363 9.70683C62.2859 9.80175 63.1982 10.7141 63.2932 11.8637L63.5832 15.3073C63.657 16.1827 64.2108 16.9473 65.0229 17.2901L68.2081 18.6296C69.2733 19.0778 69.8587 20.2275 69.595 21.3507L68.804 24.7152C68.6036 25.5748 68.8936 26.4713 69.5634 27.0461L72.179 29.3032C73.0544 30.0573 73.2548 31.3335 72.6589 32.3196L70.8659 35.2728C70.4071 36.0269 70.4071 36.9708 70.8659 37.7249Z" fill="#FFFCFC"/>
</svg>
